<svg xmlns="http://www.w3.org/2000/svg" width="331.768" height="66.957" overflow="visible" xml:space="preserve">
  <switch>
    <g>
      <radialGradient id="a" cx="72.682" cy="-22.942" r="122.322" gradientUnits="userSpaceOnUse">
        <stop offset="0" stop-color="#2db8ec"/>
        <stop offset="1" stop-color="#002d9d"/>
      </radialGradient>
      <path fill="url(#a)" d="m54.371 21.581 5.648 3.775 3.255 7.078-2.266 4.142-6.246-3.692-3.369-7.953z"/>
      <radialGradient id="b" cx="72.684" cy="-22.946" r="122.332" gradientUnits="userSpaceOnUse">
        <stop offset="0" stop-color="#2db8ec"/>
        <stop offset="1" stop-color="#002d9d"/>
      </radialGradient>
      <path fill="url(#b)" d="m43.267 8.046 6.164 4.36 2.973 6.776-3.14 3.172-6.884-4.407-3.005-7.569z"/>
      <radialGradient id="c" cx="72.684" cy="-22.945" r="122.327" gradientUnits="userSpaceOnUse">
        <stop offset="0" stop-color="#2db8ec"/>
        <stop offset="1" stop-color="#002d9d"/>
      </radialGradient>
      <path fill="url(#c)" d="m54.858 35.703 6.398 3.655 3.756 8.557-2.46 6.147-7.172-3.356-3.917-9.868z"/>
      <g>
        <radialGradient id="d" cx="72.685" cy="-22.948" r="122.337" gradientUnits="userSpaceOnUse">
          <stop offset="0" stop-color="#2db8ec"/>
          <stop offset="1" stop-color="#002d9d"/>
        </radialGradient>
        <path fill="url(#d)" d="m29.07 4.676 7.771 5.191 2.999 7.769-4.828 3.586-8.945-5.283-2.894-8.83z"/>
      </g>
      <g>
        <radialGradient id="e" cx="72.675" cy="-22.948" r="122.324" gradientUnits="userSpaceOnUse">
          <stop offset="0" stop-color="#2db8ec"/>
          <stop offset="1" stop-color="#002d9d"/>
        </radialGradient>
        <path fill="url(#e)" d="m9.376 0 10.266 6.395 2.84 9.104-7.764 4.109-12.337-6.585L0 2.432z"/>
      </g>
      <g>
        <radialGradient id="f" cx="72.681" cy="-22.945" r="122.325" gradientUnits="userSpaceOnUse">
          <stop offset="0" stop-color="#2db8ec"/>
          <stop offset="1" stop-color="#002d9d"/>
        </radialGradient>
        <path fill="url(#f)" d="m25.297 18.82 9.243 5.284 3.414 9.673-5.946 6.008-10.931-5.111-3.21-11.392z"/>
      </g>
      <g>
        <radialGradient id="g" cx="72.682" cy="-22.948" r="122.332" gradientUnits="userSpaceOnUse">
          <stop offset="0" stop-color="#2db8ec"/>
          <stop offset="1" stop-color="#002d9d"/>
        </radialGradient>
        <path fill="url(#g)" d="m40.669 36.983 8.275 4.236 3.944 10.208-4.243 7.768-9.637-3.75-3.973-12.126z"/>
      </g>
      <g>
        <radialGradient id="h" cx="72.68" cy="-22.951" r="122.334" gradientUnits="userSpaceOnUse">
          <stop offset="0" stop-color="#2db8ec"/>
          <stop offset="1" stop-color="#002d9d"/>
        </radialGradient>
        <path fill="url(#h)" d="m19.963 38.853 11.382 5.025 3.946 12.643-7.671 10.436-14.047-4.145-3.533-15.718z"/>
      </g>
      <g fill="#616161">
        <path d="M133.955 23.217c-.831 0-1.681.145-2.52.43-2.212.748-4.082 2.389-5.132 4.501a8.204 8.204 0 0 0-.78 2.462l-1.566 11.134a7.09 7.09 0 0 0 .093 2.462c.456 2.113 1.863 3.752 3.864 4.5a6.804 6.804 0 0 0 2.399.432h14.803c.039-.277.474-3.387.515-3.664h-10.553c-2.049 0-3.489-1.667-3.207-3.715l.528-3.75h16.542c.038-.288 1.038-7.394 1.038-7.394a7.057 7.057 0 0 0-.092-2.469c-.455-2.11-1.867-3.751-3.864-4.499a6.826 6.826 0 0 0-2.401-.43h-9.667zm-.517 7.408c.309-2.065 2.215-3.745 4.252-3.745h1.167c2.048 0 3.488 1.665 3.207 3.713l-.527 3.752h-8.623l.524-3.72zM189.556 23.217c-.83 0-1.68.145-2.52.43-2.213.748-4.082 2.389-5.135 4.501a8.233 8.233 0 0 0-.78 2.462l-1.563 11.134a7.017 7.017 0 0 0 .091 2.462c.459 2.113 1.865 3.753 3.863 4.5a6.814 6.814 0 0 0 2.4.432h14.802c.039-.277.475-3.387.516-3.664h-10.553c-2.046 0-3.486-1.667-3.206-3.715l.527-3.75h16.541c.038-.288 1.039-7.394 1.039-7.394a7.057 7.057 0 0 0-.093-2.469c-.455-2.11-1.86-3.751-3.863-4.499a6.802 6.802 0 0 0-2.398-.43h-9.668zm-.521 7.408c.309-2.065 2.218-3.745 4.256-3.745h1.168c2.048 0 3.485 1.665 3.204 3.713l-.529 3.752h-8.622l.523-3.72zM172.474 23.217l-8.155 16.164s-3.568-15.962-3.612-16.164h-7.792c.087.412 5.744 25.717 5.793 25.92h8.481c.104-.203 12.873-25.508 13.077-25.92h-7.792zM93.372 18.425c-.042.308-4.273 30.403-4.315 30.712h22.551a7.87 7.87 0 0 0 2.525-.432c2.209-.747 4.077-2.387 5.129-4.5.403-.82.668-1.647.782-2.462l2.238-15.925a7.065 7.065 0 0 0-.093-2.462c-.457-2.112-1.863-3.753-3.861-4.499a6.845 6.845 0 0 0-2.404-.433l-22.552.001zm7.403 3.665h10.385c2.045 0 3.486 1.664 3.209 3.712l-2.243 15.954c-.298 2.05-2.206 3.717-4.251 3.717H97.49l3.285-23.383zM306.759 17.997c-.042.309-4.333 30.831-4.377 31.14h7.917l1.553-11.048h3.883c1.833.195 3.325 1.617 3.564 3.378-.002-.014 0-.008.442 3.477l.537 4.193h7.846c-.049-.374-.911-7.152-.911-7.152-.229-2.048-1.011-3.76-2.333-5.095l-.706-.713.904-.711a11.897 11.897 0 0 0 3.761-5.082s2.529-6.191 2.929-7.167h-7.846l-3.131 7.665c-.741 1.766-2.632 3.188-4.504 3.385h-3.897l2.286-16.27h-7.917zM287.74 23.217a7.91 7.91 0 0 0-2.531.432c-2.176.739-4.091 2.423-5.122 4.499a8.088 8.088 0 0 0-.78 2.464l-1.567 11.132a7.063 7.063 0 0 0 .091 2.464c.456 2.111 1.864 3.751 3.864 4.498a6.782 6.782 0 0 0 2.403.432h14.37l.516-3.664h-10.125c-2.051 0-3.486-1.665-3.203-3.715l1.569-11.17c.302-2.045 2.207-3.707 4.249-3.707h10.122l.516-3.664-14.372-.001zM211.205 18.424l-4.316 30.713h7.918c.042-.309 4.273-30.405 4.314-30.713h-7.916zM259.047 23.217c-.832 0-1.682.145-2.526.432-2.208.749-4.078 2.39-5.128 4.502a8.1 8.1 0 0 0-.783 2.461l-1.565 11.132a7.053 7.053 0 0 0 .094 2.464c.456 2.111 1.864 3.751 3.864 4.498a6.755 6.755 0 0 0 2.401.432h4.649c.038-.277.477-3.386.515-3.664h-.399c-2.05 0-3.489-1.665-3.207-3.714l1.569-11.171c.303-2.045 2.21-3.707 4.253-3.707h5.212s-3.084 21.947-3.126 22.256h7.915c.045-.309 3.605-25.631 3.646-25.92l-17.384-.001zM223.121 17.821c-.041.309-4.356 31.007-4.4 31.315h7.912l3.128-22.258h5.811c2.044 0 3.481 1.664 3.21 3.713l-2.606 18.545h7.915c.045-.309 2.606-18.527 2.606-18.527a7.094 7.094 0 0 0-.095-2.462c-.457-2.114-1.865-3.755-3.864-4.502a6.843 6.843 0 0 0-2.401-.43h-10.058l.758-5.395-7.916.001z"/>
      </g>
    </g>
  </switch>
</svg>
