<svg xmlns="http://www.w3.org/2000/svg" width="285.483" height="172.698" overflow="visible" xml:space="preserve">
  <switch>
    <g>
      <radialGradient id="a" cx="212.866" cy="-40.046" r="213.494" gradientUnits="userSpaceOnUse">
        <stop offset="0" stop-color="#2db8ec"/>
        <stop offset="1" stop-color="#002d9d"/>
      </radialGradient>
      <path fill="url(#a)" d="m180.903 37.663 9.859 6.588 5.684 12.353-3.957 7.231-10.903-6.443-5.879-13.88z"/>
      <radialGradient id="b" cx="212.864" cy="-40.058" r="213.525" gradientUnits="userSpaceOnUse">
        <stop offset="0" stop-color="#2db8ec"/>
        <stop offset="1" stop-color="#002d9d"/>
      </radialGradient>
      <path fill="url(#b)" d="m161.524 14.039 10.758 7.612 5.189 11.825-5.481 5.539-12.015-7.692-5.244-13.213z"/>
      <radialGradient id="c" cx="212.866" cy="-40.048" r="213.5" gradientUnits="userSpaceOnUse">
        <stop offset="0" stop-color="#2db8ec"/>
        <stop offset="1" stop-color="#002d9d"/>
      </radialGradient>
      <path fill="url(#c)" d="m181.755 62.312 11.165 6.379 6.555 14.936-4.293 10.727-12.518-5.857-6.837-17.224z"/>
      <g>
        <radialGradient id="d" cx="212.863" cy="-40.053" r="213.509" gradientUnits="userSpaceOnUse">
          <stop offset="0" stop-color="#2db8ec"/>
          <stop offset="1" stop-color="#002d9d"/>
        </radialGradient>
        <path fill="url(#d)" d="m136.746 8.159 13.562 9.057 5.234 13.562-8.429 6.258-15.609-9.218-5.049-15.415z"/>
      </g>
      <g>
        <radialGradient id="e" cx="212.86" cy="-40.051" r="213.501" gradientUnits="userSpaceOnUse">
          <stop offset="0" stop-color="#2db8ec"/>
          <stop offset="1" stop-color="#002d9d"/>
        </radialGradient>
        <path fill="url(#e)" d="m102.371 0 17.92 11.158 4.959 15.891-13.554 7.172L90.163 22.73 86.008 4.242z"/>
      </g>
      <g>
        <radialGradient id="f" cx="212.86" cy="-40.048" r="213.499" gradientUnits="userSpaceOnUse">
          <stop offset="0" stop-color="#2db8ec"/>
          <stop offset="1" stop-color="#002d9d"/>
        </radialGradient>
        <path fill="url(#f)" d="m130.16 32.848 16.137 9.215 5.953 16.887-10.378 10.488-19.076-8.922-5.603-19.883z"/>
      </g>
      <g>
        <radialGradient id="g" cx="212.861" cy="-40.052" r="213.507" gradientUnits="userSpaceOnUse">
          <stop offset="0" stop-color="#2db8ec"/>
          <stop offset="1" stop-color="#002d9d"/>
        </radialGradient>
        <path fill="url(#g)" d="m156.99 64.548 14.444 7.389 6.881 17.818-7.404 13.559-16.822-6.544-6.932-21.166z"/>
      </g>
      <g>
        <radialGradient id="h" cx="212.858" cy="-40.057" r="213.512" gradientUnits="userSpaceOnUse">
          <stop offset="0" stop-color="#2db8ec"/>
          <stop offset="1" stop-color="#002d9d"/>
        </radialGradient>
        <path fill="url(#h)" d="m120.85 67.81 19.865 8.768 6.889 22.07-13.39 18.213-24.514-7.233-6.167-27.435z"/>
      </g>
      <g fill="#616161">
        <path d="M52.812 142.21c-.978 0-1.978.169-2.964.506-2.603.88-4.801 2.809-6.037 5.295-.474.966-.784 1.939-.917 2.896L41.053 164a8.285 8.285 0 0 0 .108 2.896c.535 2.482 2.19 4.412 4.543 5.291.9.338 1.852.51 2.822.51h17.41c.047-.326.561-3.984.607-4.311H54.13c-2.409 0-4.102-1.961-3.77-4.369l.62-4.411h19.457l1.221-8.696a8.316 8.316 0 0 0-.107-2.902c-.538-2.484-2.197-4.413-4.546-5.293a7.977 7.977 0 0 0-2.823-.506h-11.37zm-.61 8.713c.362-2.428 2.606-4.405 5.003-4.405h1.373c2.409 0 4.104 1.961 3.772 4.369l-.622 4.411H51.586l.616-4.375zM118.21 142.21a9.19 9.19 0 0 0-2.966.506c-2.601.88-4.798 2.809-6.038 5.295-.472.966-.783 1.939-.917 2.896L106.449 164a8.285 8.285 0 0 0 .108 2.896c.537 2.484 2.193 4.414 4.543 5.291.9.338 1.85.51 2.825.51h17.409l.606-4.311h-12.411c-2.41 0-4.104-1.961-3.772-4.369l.62-4.411h19.455l1.223-8.696a8.34 8.34 0 0 0-.107-2.902c-.535-2.484-2.191-4.413-4.546-5.293a7.969 7.969 0 0 0-2.823-.506H118.21zm-.612 8.713c.362-2.428 2.609-4.405 5.005-4.405h1.373c2.409 0 4.101 1.961 3.769 4.369l-.618 4.411h-10.145l.616-4.375zM98.118 142.21l-9.593 19.011-4.248-19.011H75.11c.106.484 6.758 30.248 6.813 30.488h9.978c.123-.24 15.141-30.003 15.383-30.488h-9.166zM5.077 136.573 0 172.698h26.526c.974 0 1.973-.172 2.969-.51 2.598-.877 4.796-2.807 6.032-5.291.476-.965.789-1.939.922-2.896l2.632-18.731a8.287 8.287 0 0 0-.109-2.896c-.536-2.483-2.192-4.413-4.542-5.292a8.035 8.035 0 0 0-2.827-.509H5.077zm8.709 4.31h12.213c2.407 0 4.1 1.959 3.773 4.367l-2.638 18.766c-.351 2.41-2.594 4.371-5.002 4.371H9.921l3.865-27.504zM256.068 136.07l-5.147 36.627h9.311l1.825-12.995h4.565c2.158.229 3.912 1.9 4.193 3.973a8366.548 8366.548 0 0 0 1.154 9.022h9.229c-.057-.439-1.072-8.412-1.072-8.412-.27-2.41-1.19-4.425-2.745-5.994l-.83-.839 1.065-.836c1.994-1.57 3.479-3.579 4.422-5.979 0 0 2.975-7.282 3.445-8.429h-9.229l-3.684 9.015c-.871 2.078-3.096 3.75-5.296 3.981h-4.587s2.64-18.774 2.689-19.136c-.344.002-8.961.002-9.308.002zM233.697 142.21a9.38 9.38 0 0 0-2.978.506c-2.561.872-4.814 2.85-6.025 5.295a9.5 9.5 0 0 0-.918 2.896L221.934 164a8.327 8.327 0 0 0 .105 2.898c.537 2.482 2.193 4.412 4.545 5.293a8.057 8.057 0 0 0 2.826.506h16.904c.044-.326.56-3.982.605-4.311h-11.907c-2.413 0-4.104-1.959-3.771-4.369l1.848-13.138c.355-2.406 2.598-4.36 4.995-4.36h11.907l.607-4.31-16.901.001zM143.673 136.571c-.05.363-5.026 35.765-5.077 36.126h9.313c.049-.361 5.026-35.763 5.075-36.126h-9.311zM199.945 142.21c-.976 0-1.976.171-2.97.506-2.6.882-4.795 2.812-6.032 5.295a9.543 9.543 0 0 0-.921 2.896L188.181 164a8.299 8.299 0 0 0 .109 2.898c.537 2.482 2.193 4.412 4.546 5.293a8.03 8.03 0 0 0 2.824.506h5.469c.045-.326.56-3.982.605-4.311h-.471c-2.41 0-4.104-1.959-3.771-4.367l1.846-13.14c.358-2.406 2.602-4.36 4.999-4.36h6.137s-3.63 25.813-3.68 26.178h9.312c.051-.365 4.237-30.148 4.286-30.488l-20.447.001zM157.692 135.863l-5.177 36.834h9.306l3.68-26.18h6.832c2.404 0 4.097 1.958 3.776 4.367l-3.065 21.813h9.312l3.063-21.792a8.344 8.344 0 0 0-.11-2.897c-.537-2.486-2.193-4.416-4.547-5.295a8.035 8.035 0 0 0-2.824-.506h-11.83l.893-6.345-9.309.001z"/>
      </g>
    </g>
  </switch>
</svg>
